<mxfile host="65bd71144e">
    <diagram id="Hm3814gNDC9atg2mfBJW" name="Page-1">
        <mxGraphModel dx="1146" dy="772" grid="1" gridSize="10" guides="1" tooltips="1" connect="1" arrows="1" fold="1" page="1" pageScale="1" pageWidth="1169" pageHeight="827" background="none" math="0" shadow="0">
            <root>
                <mxCell id="0"/>
                <mxCell id="1" parent="0"/>
                <mxCell id="207" style="edgeStyle=orthogonalEdgeStyle;curved=1;html=1;strokeColor=#6F0000;strokeWidth=1.5;fontSize=12;fontColor=#FFFFFF;dashed=1;fillColor=#a20025;dashPattern=8 8;arcSize=20;" edge="1" parent="1" source="160" target="133">
                    <mxGeometry relative="1" as="geometry"/>
                </mxCell>
                <mxCell id="208" style="edgeStyle=orthogonalEdgeStyle;curved=1;html=1;dashed=1;strokeColor=#6F0000;strokeWidth=1.5;fontSize=12;fontColor=#FFFFFF;fillColor=#a20025;dashPattern=8 8;" edge="1" parent="1" source="161" target="187">
                    <mxGeometry relative="1" as="geometry"/>
                </mxCell>
                <mxCell id="209" style="edgeStyle=orthogonalEdgeStyle;curved=1;html=1;dashed=1;strokeColor=#6F0000;strokeWidth=1.5;fontSize=12;fontColor=#FFFFFF;fillColor=#a20025;dashPattern=8 8;exitX=1;exitY=0.5;exitDx=0;exitDy=0;arcSize=100;" edge="1" parent="1" source="162" target="201">
                    <mxGeometry relative="1" as="geometry"/>
                </mxCell>
                <mxCell id="144" value="ss-local" style="rounded=0;whiteSpace=wrap;html=1;strokeColor=#FFFFFF;fontSize=12;fontColor=#FFFFFF;fillColor=none;verticalAlign=bottom;horizontal=1;glass=0;" vertex="1" parent="1">
                    <mxGeometry x="240" y="440" width="200" height="160" as="geometry"/>
                </mxCell>
                <mxCell id="198" value="" style="shape=dataStorage;whiteSpace=wrap;html=1;fixedSize=1;rounded=0;shadow=0;glass=0;sketch=0;fillStyle=auto;strokeColor=default;fontSize=12;fontColor=#FFFFFF;fillColor=default;gradientColor=#00994D;gradientDirection=south;" vertex="1" parent="1">
                    <mxGeometry x="420" y="500" width="177" height="60" as="geometry"/>
                </mxCell>
                <mxCell id="97" value="Business Architecture - Shadowsock Basic Conception" style="text;strokeColor=none;align=center;fillColor=none;html=1;verticalAlign=middle;whiteSpace=wrap;rounded=0;fontSize=16;fontStyle=1" parent="1" vertex="1">
                    <mxGeometry x="245" width="680" height="30" as="geometry"/>
                </mxCell>
                <mxCell id="133" value="DNS Server" style="sketch=0;pointerEvents=1;shadow=0;dashed=0;html=1;strokeColor=none;labelPosition=center;verticalLabelPosition=bottom;verticalAlign=top;outlineConnect=0;align=center;shape=mxgraph.office.servers.server_generic;fillColor=#7FBA42;" vertex="1" parent="1">
                    <mxGeometry x="950" y="178" width="27" height="52" as="geometry"/>
                </mxCell>
                <mxCell id="145" value="ss-server" style="rounded=0;whiteSpace=wrap;html=1;strokeColor=#FFFFFF;fontSize=12;fontColor=#FFFFFF;fillColor=none;verticalAlign=bottom;horizontal=1;glass=0;" vertex="1" parent="1">
                    <mxGeometry x="760" y="440" width="200" height="160" as="geometry"/>
                </mxCell>
                <mxCell id="150" value="Sock5 Proxy" style="rounded=0;whiteSpace=wrap;html=1;strokeColor=#FFFFFF;fontSize=12;fontColor=#FFFFFF;fillColor=none;glass=0;" vertex="1" parent="1">
                    <mxGeometry x="280" y="440" width="120" height="30" as="geometry"/>
                </mxCell>
                <mxCell id="159" value="Network Traffic" style="swimlane;fontStyle=0;childLayout=stackLayout;horizontal=1;startSize=30;horizontalStack=0;resizeParent=1;resizeParentMax=0;resizeLast=0;collapsible=1;marginBottom=0;whiteSpace=wrap;html=1;rounded=0;glass=0;sketch=1;strokeColor=#FFFFFF;fontSize=12;fontColor=#FFFFFF;fillColor=default;direction=east;" vertex="1" parent="1">
                    <mxGeometry x="40" y="200" width="160" height="120" as="geometry"/>
                </mxCell>
                <mxCell id="160" value="- UDP protocols: DNS query" style="text;strokeColor=default;fillColor=none;align=left;verticalAlign=middle;spacingLeft=4;spacingRight=4;overflow=hidden;points=[[0,0.5],[1,0.5]];portConstraint=eastwest;rotatable=0;whiteSpace=wrap;html=1;rounded=0;glass=0;sketch=1;fontSize=12;fontColor=#FFFFFF;" vertex="1" parent="159">
                    <mxGeometry y="30" width="160" height="30" as="geometry"/>
                </mxCell>
                <mxCell id="161" value="- HTTP protocols: Website" style="text;strokeColor=default;fillColor=none;align=left;verticalAlign=middle;spacingLeft=4;spacingRight=4;overflow=hidden;points=[[0,0.5],[1,0.5]];portConstraint=eastwest;rotatable=0;whiteSpace=wrap;html=1;rounded=0;glass=0;sketch=1;fontSize=12;fontColor=#FFFFFF;" vertex="1" parent="159">
                    <mxGeometry y="60" width="160" height="30" as="geometry"/>
                </mxCell>
                <mxCell id="162" value="- HTTPS protocols: Website" style="text;strokeColor=default;fillColor=none;align=left;verticalAlign=middle;spacingLeft=4;spacingRight=4;overflow=hidden;points=[[0,0.5],[1,0.5]];portConstraint=eastwest;rotatable=0;whiteSpace=wrap;html=1;rounded=0;glass=0;sketch=1;fontSize=12;fontColor=#FFFFFF;" vertex="1" parent="159">
                    <mxGeometry y="90" width="160" height="30" as="geometry"/>
                </mxCell>
                <mxCell id="187" value="HTTP Server" style="sketch=0;pointerEvents=1;shadow=0;dashed=0;html=1;strokeColor=none;labelPosition=center;verticalLabelPosition=bottom;verticalAlign=top;outlineConnect=0;align=center;shape=mxgraph.office.servers.server_generic;fillColor=#7FBA42;" vertex="1" parent="1">
                    <mxGeometry x="1010" y="235" width="27" height="52" as="geometry"/>
                </mxCell>
                <mxCell id="201" value="HTTPS Server" style="sketch=0;pointerEvents=1;shadow=0;dashed=0;html=1;strokeColor=none;labelPosition=center;verticalLabelPosition=bottom;verticalAlign=top;outlineConnect=0;align=center;shape=mxgraph.office.servers.server_generic;fillColor=#7FBA42;" vertex="1" parent="1">
                    <mxGeometry x="1037" y="315" width="27" height="52" as="geometry"/>
                </mxCell>
                <mxCell id="203" style="edgeStyle=orthogonalEdgeStyle;curved=1;html=1;strokeColor=#006EAF;fontSize=12;fontColor=#FFFFFF;fillColor=#1ba1e2;strokeWidth=1.5;startArrow=classic;startFill=1;" edge="1" parent="1" source="160" target="133">
                    <mxGeometry relative="1" as="geometry">
                        <mxPoint x="270" y="245" as="targetPoint"/>
                        <Array as="points">
                            <mxPoint x="350" y="245"/>
                            <mxPoint x="350" y="530"/>
                            <mxPoint x="880" y="530"/>
                            <mxPoint x="880" y="220"/>
                        </Array>
                    </mxGeometry>
                </mxCell>
                <mxCell id="205" style="edgeStyle=orthogonalEdgeStyle;curved=1;html=1;strokeColor=#006EAF;fontSize=12;fontColor=#FFFFFF;fillColor=#1ba1e2;strokeWidth=1.5;startArrow=classic;startFill=1;" edge="1" parent="1" source="161" target="187">
                    <mxGeometry relative="1" as="geometry">
                        <Array as="points">
                            <mxPoint x="330" y="275"/>
                            <mxPoint x="330" y="540"/>
                            <mxPoint x="920" y="540"/>
                            <mxPoint x="920" y="275"/>
                        </Array>
                    </mxGeometry>
                </mxCell>
                <mxCell id="206" style="edgeStyle=orthogonalEdgeStyle;curved=1;html=1;strokeColor=#2D7600;fontSize=12;fontColor=#FFFFFF;fillColor=#60a917;strokeWidth=1.5;startArrow=classic;startFill=1;" edge="1" parent="1" source="162" target="201">
                    <mxGeometry relative="1" as="geometry">
                        <Array as="points">
                            <mxPoint x="310" y="305"/>
                            <mxPoint x="310" y="550"/>
                            <mxPoint x="940" y="550"/>
                            <mxPoint x="940" y="350"/>
                        </Array>
                    </mxGeometry>
                </mxCell>
                <mxCell id="199" value="" style="shape=dataStorage;whiteSpace=wrap;html=1;fixedSize=1;rounded=0;shadow=0;glass=0;sketch=0;fillStyle=auto;strokeColor=default;fontSize=12;fontColor=#FFFFFF;fillColor=default;gradientColor=#00994D;gradientDirection=south;direction=west;" vertex="1" parent="1">
                    <mxGeometry x="600" y="500" width="180" height="60" as="geometry"/>
                </mxCell>
                <mxCell id="194" value="Firewall" style="shape=cube;whiteSpace=wrap;html=1;boundedLbl=1;backgroundOutline=1;darkOpacity=0;darkOpacity2=0;rounded=0;glass=0;fillStyle=auto;strokeColor=#660000;fontSize=12;fontColor=#ffffff;fillColor=#a20025;shadow=0;size=70;horizontal=0;fillOpacity=100;strokeOpacity=100;fillWeight=3;hachureGap=-1;disableMultiStroke=1;disableMultiStrokeFill=0;dashOffset=-1;dashGap=-1;strokeWidth=1;perimeterSpacing=0;treeFolding=0;treeMoving=0;enumerate=0;cloneable=1;autosize=0;hachureAngle=-41;simplification=0;sketchStyle=rough;comic=0;fixDash=0;snapToPoint=0;metaEdit=0;opacity=80;" vertex="1" parent="1">
                    <mxGeometry x="560" y="80" width="90" height="680" as="geometry"/>
                </mxCell>
                <mxCell id="197" value="" style="shape=dataStorage;whiteSpace=wrap;html=1;fixedSize=1;rounded=0;shadow=0;glass=0;sketch=0;fillStyle=auto;strokeColor=default;fontSize=12;fontColor=#FFFFFF;fillColor=default;gradientColor=#00994D;gradientDirection=south;direction=west;" vertex="1" parent="1">
                    <mxGeometry x="440" y="500" width="180" height="60" as="geometry"/>
                </mxCell>
                <mxCell id="214" value="Encrypted&amp;nbsp; &amp;nbsp; &amp;nbsp; &amp;nbsp; &amp;nbsp; &amp;nbsp; &amp;nbsp; &amp;nbsp; Tunnel" style="text;html=1;align=center;verticalAlign=middle;resizable=0;points=[];autosize=1;strokeColor=none;fillColor=none;fontSize=12;fontColor=#FFFFFF;" vertex="1" parent="1">
                    <mxGeometry x="540" y="515" width="170" height="30" as="geometry"/>
                </mxCell>
                <mxCell id="218" value="QoS filtering" style="strokeWidth=1;shadow=0;dashed=0;align=center;html=1;shape=mxgraph.mockup.text.callout;linkText=;textSize=17;textColor=#666666;callDir=NW;callStyle=line;fontSize=12;fontColor=#FFFFFF;align=left;verticalAlign=top;strokeColor=#666666;rounded=0;glass=0;labelBackgroundColor=none;comic=0;sketch=0;fillWeight=3;hachureGap=-1;hachureAngle=-41;jiggle=0;disableMultiStroke=1;disableMultiStrokeFill=0;fillStyle=auto;curveFitting=1;simplification=0;sketchStyle=rough;fillColor=none;gradientColor=none;gradientDirection=south;" vertex="1" parent="1">
                    <mxGeometry x="400" y="360" width="200" height="140" as="geometry"/>
                </mxCell>
                <mxCell id="220" value="DNS poisoning" style="strokeWidth=1;shadow=0;dashed=0;align=center;html=1;shape=mxgraph.mockup.text.callout;linkText=;textSize=17;textColor=#666666;callDir=NW;callStyle=line;fontSize=12;fontColor=#FFFFFF;align=left;verticalAlign=top;strokeColor=#666666;rounded=0;glass=0;labelBackgroundColor=none;comic=0;sketch=0;fillWeight=3;hachureGap=-1;hachureAngle=-41;jiggle=0;disableMultiStroke=1;disableMultiStrokeFill=0;fillStyle=auto;curveFitting=1;simplification=0;sketchStyle=rough;fillColor=none;gradientColor=none;gradientDirection=south;" vertex="1" parent="1">
                    <mxGeometry x="400" y="80" width="197" height="135" as="geometry"/>
                </mxCell>
                <mxCell id="221" value="IP Ban&lt;br&gt;URL and Data filtering" style="strokeWidth=1;shadow=0;dashed=0;align=center;html=1;shape=mxgraph.mockup.text.callout;linkText=;textSize=17;textColor=#666666;callDir=NW;callStyle=line;fontSize=12;fontColor=#FFFFFF;align=left;verticalAlign=top;strokeColor=#666666;rounded=0;glass=0;labelBackgroundColor=none;comic=0;sketch=0;fillWeight=3;hachureGap=-1;hachureAngle=-41;jiggle=0;disableMultiStroke=1;disableMultiStrokeFill=0;fillStyle=auto;curveFitting=1;simplification=0;sketchStyle=rough;fillColor=none;gradientColor=none;gradientDirection=south;labelPosition=center;verticalLabelPosition=middle;" vertex="1" parent="1">
                    <mxGeometry x="400" y="130" width="197" height="135" as="geometry"/>
                </mxCell>
                <mxCell id="222" value="IP Ban&lt;br&gt;MIMT attack" style="strokeWidth=1;shadow=0;dashed=0;align=center;html=1;shape=mxgraph.mockup.text.callout;linkText=;textSize=17;textColor=#666666;callDir=NW;callStyle=line;fontSize=12;fontColor=#FFFFFF;align=left;verticalAlign=top;strokeColor=#666666;rounded=0;glass=0;labelBackgroundColor=none;comic=0;sketch=0;fillWeight=3;hachureGap=-1;hachureAngle=-41;jiggle=0;disableMultiStroke=1;disableMultiStrokeFill=0;fillStyle=auto;curveFitting=1;simplification=0;sketchStyle=rough;fillColor=none;gradientColor=none;gradientDirection=south;labelPosition=center;verticalLabelPosition=middle;" vertex="1" parent="1">
                    <mxGeometry x="400" y="180" width="197" height="135" as="geometry"/>
                </mxCell>
            </root>
        </mxGraphModel>
    </diagram>
</mxfile>